<?xml version="1.0" encoding="UTF-8" standalone="no"?>
<!-- Created with Inkscape (http://www.inkscape.org/) -->

<svg
   version="1.1"
   id="svg1"
   width="4694.6665"
   height="848"
   viewBox="0 0 4694.6665 848"
   sodipodi:docname="Rulebase-logo (1).eps"
   xmlns:inkscape="http://www.inkscape.org/namespaces/inkscape"
   xmlns:sodipodi="http://sodipodi.sourceforge.net/DTD/sodipodi-0.dtd"
   xmlns="http://www.w3.org/2000/svg"
   xmlns:svg="http://www.w3.org/2000/svg">
  <defs
     id="defs1" />
  <sodipodi:namedview
     id="namedview1"
     pagecolor="#ffffff"
     bordercolor="#000000"
     borderopacity="0.25"
     inkscape:showpageshadow="2"
     inkscape:pageopacity="0.0"
     inkscape:pagecheckerboard="0"
     inkscape:deskcolor="#d1d1d1">
    <inkscape:page
       x="0"
       y="0"
       inkscape:label="1"
       id="page1"
       width="4694.6665"
       height="848"
       margin="0"
       bleed="0" />
  </sodipodi:namedview>
  <g
     id="g1"
     inkscape:groupmode="layer"
     inkscape:label="1">
    <path
       id="path1"
       d="M 538.711,4888.12 C 375.98,4725.39 284.531,4504.65 284.531,4274.45 V 2080.86 c 0,-233.79 94.297,-457.66 261.559,-620.98 L 1496.76,531.641 C 1658.91,373.402 1876.48,284.77 2103.05,284.77 h 2152.3 c 230.94,0 452.38,92.07 615.24,255.82 l 947.03,951.87 c 161.79,162.62 252.61,382.66 252.61,612.07 v 2175.7 c 0,230.16 -91.44,450.9 -254.18,613.68 l -922.42,922.38 C 4730.9,5979.02 4510.16,6070.47 4280,6070.47 H 2080.55 c -230.16,0 -450.94,-91.45 -613.67,-254.18 z m 1145.979,603.79 c -453.75,0 -821.6,-367.85 -821.6,-821.56 V 1684.92 c 0,-453.75 367.85,-821.561 821.6,-821.561 h 2985.39 c 453.75,0 821.6,367.811 821.6,821.561 v 2985.43 c 0,453.71 -367.85,821.56 -821.6,821.56 z"
       style="fill:#181818;fill-opacity:1;fill-rule:evenodd;stroke:none"
       transform="matrix(0.13333333,0,0,-0.13333333,0,848)" />
    <path
       id="path2"
       d="m 3900.59,3177.62 c 0,-399.42 -323.79,-723.21 -723.21,-723.21 -399.41,0 -723.2,323.79 -723.2,723.21 0,399.41 323.79,723.2 723.2,723.2 399.42,0 723.21,-323.79 723.21,-723.2 z"
       style="fill:#181818;fill-opacity:1;fill-rule:nonzero;stroke:none"
       transform="matrix(0.13333333,0,0,-0.13333333,0,848)" />
    <path
       id="path3"
       d="m 6070.16,2104.57 v 2175.7 c 0,215.78 -80.36,423.21 -224.5,582.39 l -29.64,31.17 -922.31,922.46 c -162.77,162.73 -383.55,254.18 -613.75,254.18 v 281.25 c 304.77,0 597.11,-121.1 812.58,-336.6 l 922.3,-922.27 c 215.55,-215.51 336.57,-507.85 336.57,-812.58 v -2175.7 c 0,-303.75 -120.12,-595.19 -334.34,-810.55 L 5070.04,342.191 C 4854.38,125.469 4561.17,3.58984 4255.39,3.58984 H 2103.05 c -300,0 -588.05,117.26916 -802.7,326.84016 L 349.609,1258.59 C 128.16,1474.84 3.28125,1771.29 3.28125,2080.78 v 2193.71 c 0,304.77 121.09775,597.07 336.59775,812.58 l 928.051,928.05 c 215.51,215.5 507.85,336.6 812.58,336.6 v -281.25 c -230.16,0 -450.82,-91.45 -613.6,-254.18 l -928.199,-928.2 -29.652,-31.18 C 364.922,4697.7 284.531,4490.27 284.531,4274.49 V 2080.78 l 1.09,-43.67 C 296.602,1819.34 389.34,1613.05 546.129,1459.92 L 1496.72,531.719 C 1658.83,373.48 1876.48,284.84 2103.05,284.84 h 2152.34 l 43.13,1.019 c 200.89,10.082 392.18,89.493 540.93,224.879 l 31.17,29.774 947.04,951.988 c 161.75,162.58 252.5,382.66 252.5,612.07 z M 4670.12,863.359 H 1684.73 v 281.25 h 2985.39 z m 540.27,821.521 v 2985.39 c 0,298.4 -241.87,540.39 -540.27,540.39 H 1684.73 c -298.4,0 -540.39,-241.99 -540.39,-540.39 V 1684.88 c 0.04,-298.4 241.99,-540.27 540.39,-540.27 V 863.359 l -42.31,1.129 C 1222.34,885.738 885.512,1222.5 864.18,1642.58 l -1.09,42.3 v 2985.39 c 0,439.57 345.23,798.56 779.33,820.55 l 42.31,1.09 h 2985.39 c 453.75,0 821.52,-367.89 821.52,-821.64 V 1684.88 l -1.09,-42.3 c -22.07,-434.06 -380.9,-779.221 -820.43,-779.221 v 281.251 c 298.4,0.04 540.23,241.87 540.27,540.27 z M 3900.55,3177.66 c -0.04,386.91 -303.83,702.85 -685.98,722.18 l -37.23,0.98 c -399.37,0 -723.12,-323.79 -723.16,-723.16 l 0.98,-37.23 c 19.33,-382.11 335.27,-685.94 722.18,-685.98 399.46,0 723.21,323.75 723.21,723.21 z m 379.41,2892.81 H 2080.51 v 281.25 H 4279.96 Z M 4181.8,3177.66 c 0,-554.77 -449.69,-1004.46 -1004.46,-1004.46 -554.72,0.04 -1004.41,449.69 -1004.41,1004.46 0.04,554.72 449.69,1004.41 1004.41,1004.41 554.77,0 1004.42,-449.69 1004.46,-1004.41 z"
       style="fill:#181818;fill-opacity:1;fill-rule:nonzero;stroke:none"
       transform="matrix(0.13333333,0,0,-0.13333333,0,848)" />
    <path
       id="path4"
       d="m 8525,1213.67 v 3862.38 h 2273.4 c 857.9,0 1382.5,-413.43 1382.5,-1213.12 0,-538.55 -273.2,-908.48 -737.7,-1077.11 l 874.4,-1572.15 h -978.2 l -819.8,1468.79 H 9454.02 V 1213.67 Z m 2175,3068.17 H 9454.02 V 3460.39 H 10700 c 344.3,0 530.1,135.98 530.1,402.54 0,293.79 -180.4,418.91 -530.1,418.91 z"
       style="fill:#181818;fill-opacity:1;fill-rule:nonzero;stroke:none"
       transform="matrix(0.13333333,0,0,-0.13333333,0,848)" />
    <path
       id="path5"
       d="m 14336.6,1148.4 c -961.8,0 -1470.1,554.88 -1470.1,1349.1 v 1534.06 h 890.8 V 2562.77 c 0,-359.02 196.7,-603.82 562.9,-603.82 366.1,0 568.3,244.8 568.3,603.82 v 1468.79 h 890.8 V 2497.5 c 0,-794.22 -502.8,-1349.1 -1442.7,-1349.1 z"
       style="fill:#181818;fill-opacity:1;fill-rule:nonzero;stroke:none"
       transform="matrix(0.13333333,0,0,-0.13333333,0,848)" />
    <path
       id="path6"
       d="m 16544.6,1213.67 h 890.777 V 5217.5 H 16544.6 Z"
       style="fill:#181818;fill-opacity:1;fill-rule:nonzero;stroke:none"
       transform="matrix(0.13333333,0,0,-0.13333333,0,848)" />
    <path
       id="path7"
       d="m 19580.5,4102.3 c 907.2,0 1513.8,-576.64 1513.8,-1496.01 v -152.31 h -2153.2 c 43.8,-353.59 311.6,-620.15 699.6,-620.15 344.2,0 508.2,157.73 546.4,217.58 h 879.9 c -43.7,-337.27 -448.1,-908.48 -1426.3,-908.48 -961.8,0 -1573.9,620.16 -1573.9,1479.69 0,892.15 623,1479.68 1513.7,1479.68 z m 0,-641.91 c -322.4,0 -546.4,-179.53 -622.9,-467.85 h 1246 c -76.6,293.75 -306.1,467.85 -623.1,467.85 z"
       style="fill:#181818;fill-opacity:1;fill-rule:nonzero;stroke:none"
       transform="matrix(0.13333333,0,0,-0.13333333,0,848)" />
    <path
       id="path8"
       d="m 22568.5,1616.21 v -402.54 h -868.8 V 5217.5 h 879.8 V 3618.12 c 43.7,81.61 333.4,467.86 923.5,467.86 721.4,0 1295.2,-554.89 1295.2,-1463.36 0,-913.91 -573.8,-1468.79 -1295.2,-1468.79 -601.1,0 -885.3,369.92 -934.5,462.38 z m 0,1006.41 c 0,-408.01 267.8,-712.66 672.2,-712.66 404.4,0 666.7,304.65 666.7,712.66 0,408 -262.3,712.65 -666.7,712.65 -404.4,0 -672.2,-304.65 -672.2,-712.65 z"
       style="fill:#181818;fill-opacity:1;fill-rule:nonzero;stroke:none"
       transform="matrix(0.13333333,0,0,-0.13333333,0,848)" />
    <path
       id="path9"
       d="m 27463,1627.11 c -49.1,-92.5 -316.9,-473.28 -912.6,-473.28 -710.4,0 -1284.2,554.88 -1284.2,1468.79 0,908.47 573.8,1463.36 1289.7,1463.36 579.3,0 847.1,-353.6 896.3,-446.1 v 391.68 h 885.3 V 1213.67 H 27463 Z m 0,995.51 c 0,402.58 -256.8,712.65 -644.8,712.65 -393.5,0 -655.7,-310.07 -655.7,-712.65 0,-402.58 262.2,-712.66 655.7,-712.66 388,0 644.8,310.08 644.8,712.66 z"
       style="fill:#181818;fill-opacity:1;fill-rule:nonzero;stroke:none"
       transform="matrix(0.13333333,0,0,-0.13333333,0,848)" />
    <path
       id="path10"
       d="m 30494.7,2252.7 -399,32.65 c -693.9,43.52 -1136.6,337.27 -1136.6,919.34 0,560.35 497.3,903.04 1317,903.04 1065.6,0 1360.7,-549.45 1420.9,-821.44 h -934.5 c -38.2,48.98 -163.9,195.86 -491.8,195.86 -262.3,0 -409.9,-87.07 -409.9,-223.05 0,-114.26 87.4,-201.29 333.3,-223.05 125.7,-16.32 224.1,-21.75 371.7,-32.65 852.5,-59.81 1180.3,-353.6 1180.3,-941.1 0,-571.21 -448,-924.8 -1366.2,-924.8 -1103.8,0 -1431.7,614.73 -1480.9,875.86 h 956.3 c 21.9,-59.84 153.1,-239.38 524.6,-239.38 311.6,0 459.1,97.93 459.1,233.91 0,130.59 -76.5,223.05 -344.3,244.81 z"
       style="fill:#181818;fill-opacity:1;fill-rule:nonzero;stroke:none"
       transform="matrix(0.13333333,0,0,-0.13333333,0,848)" />
    <path
       id="path11"
       d="m 33696.3,4102.3 c 907.1,0 1513.7,-576.64 1513.7,-1496.01 v -152.31 h -2153.2 c 43.8,-353.59 311.6,-620.15 699.6,-620.15 344.3,0 508.1,157.73 546.5,217.58 h 879.8 c -43.7,-337.27 -448.1,-908.48 -1426.3,-908.48 -961.9,0 -1573.9,620.16 -1573.9,1479.69 0,892.15 623,1479.68 1513.8,1479.68 z m 0,-641.91 c -322.4,0 -546.5,-179.53 -623.1,-467.85 h 1246 c -76.5,293.75 -306,467.85 -622.9,467.85 z"
       style="fill:#181818;fill-opacity:1;fill-rule:nonzero;stroke:none"
       transform="matrix(0.13333333,0,0,-0.13333333,0,848)" />
  </g>
</svg>
